<svg width="33" height="33" viewBox="0 0 33 33" fill="none" xmlns="http://www.w3.org/2000/svg">
<path d="M32.7803 30.6593L22.7527 20.631C24.4674 18.4595 25.5 15.7253 25.5 12.75C25.5 5.71951 19.7798 0 12.7501 0C5.72028 0 0 5.71951 0 12.75C0 19.7805 5.72021 25.5 12.75 25.5C15.7255 25.5 18.4599 24.4672 20.6317 22.7522L30.6591 32.7803C30.9521 33.0733 31.427 33.0733 31.7198 32.7803L32.7803 31.7199C33.0732 31.4271 33.0732 30.9522 32.7803 30.6593ZM12.7501 22.5C7.3741 22.5 3.00003 18.126 3.00003 12.75C3.00003 7.37403 7.37403 2.99996 12.7501 2.99996C18.126 2.99996 22.5001 7.37396 22.5001 12.75C22.5001 18.126 18.126 22.5 12.7501 22.5Z" fill="#252525"/>
</svg>
